<svg id="Layer_1" data-name="Layer 1" xmlns="http://www.w3.org/2000/svg" xmlns:xlink="http://www.w3.org/1999/xlink" viewBox="0 0 536.5 181.02"><defs><style>.cls-1,.cls-4{fill:none;}.cls-2{fill:#353535;}.cls-3{clip-path:url(#clip-path);}.cls-4{stroke:#fff;stroke-linecap:round;stroke-linejoin:round;stroke-width:2px;}.cls-5{clip-path:url(#clip-path-2);}.cls-6{clip-path:url(#clip-path-3);}.cls-7{opacity:0.05;}</style><clipPath id="clip-path" transform="translate(0 -2.84)"><polygon class="cls-1" points="92.6 60.84 13.33 16.32 13.33 129.82 92.6 174.34 171.87 129.82 171.87 16.32 92.6 60.84"/></clipPath><clipPath id="clip-path-2" transform="translate(0 -2.84)"><polygon class="cls-1" points="92.96 53.62 21.96 9.02 21.96 122.72 92.96 167.32 163.96 122.72 163.96 9.02 92.96 53.62"/></clipPath><clipPath id="clip-path-3" transform="translate(0 -2.84)"><polygon class="cls-1" points="92.46 46.8 31.96 3.84 31.96 113.36 92.46 156.32 152.96 113.36 152.96 3.84 92.46 46.8"/></clipPath></defs><path class="cls-2" d="M216.3,14.6h26.4a67.34,67.34,0,0,1,9.25.65,25.21,25.21,0,0,1,8.35,2.6,16.12,16.12,0,0,1,6,5.45q2.29,3.49,2.3,9.3a14.86,14.86,0,0,1-3.35,9.95,18.48,18.48,0,0,1-8.85,5.65v.2a20.06,20.06,0,0,1,6.35,2,17.06,17.06,0,0,1,4.9,3.7,16,16,0,0,1,3.15,5.25,18.51,18.51,0,0,1,1.1,6.4,17,17,0,0,1-2.4,9.35,18.87,18.87,0,0,1-6.2,6,27.48,27.48,0,0,1-8.55,3.3,45.59,45.59,0,0,1-9.45,1h-29Zm15.6,28.3h11.3a15.71,15.71,0,0,0,3.55-.4,10,10,0,0,0,3.15-1.3,6.83,6.83,0,0,0,2.25-2.4,7.26,7.26,0,0,0,.85-3.6,6.28,6.28,0,0,0-3.4-5.9,11.74,11.74,0,0,0-3.4-1.15,20.74,20.74,0,0,0-3.7-.35H231.9Zm0,29.3h14a17.07,17.07,0,0,0,3.65-.4,9.68,9.68,0,0,0,3.35-1.4,8,8,0,0,0,2.45-2.6,7.56,7.56,0,0,0,1-3.9,6.26,6.26,0,0,0-1.25-4,8,8,0,0,0-3.15-2.35,16.39,16.39,0,0,0-4.1-1.1,30.58,30.58,0,0,0-4.1-.3H231.9Z" transform="translate(0 -2.84)"/><path class="cls-2" d="M277.3,50a40,40,0,0,1,2.85-15.4,33.75,33.75,0,0,1,8-11.75,35,35,0,0,1,12.1-7.45,46.32,46.32,0,0,1,30.6,0,35.09,35.09,0,0,1,12.1,7.45,33.75,33.75,0,0,1,8,11.75A40,40,0,0,1,353.7,50a40,40,0,0,1-2.85,15.4,33.75,33.75,0,0,1-8,11.75,35.09,35.09,0,0,1-12.1,7.45,46.32,46.32,0,0,1-30.6,0,35,35,0,0,1-12.1-7.45,33.75,33.75,0,0,1-8-11.75A40,40,0,0,1,277.3,50Zm16.2,0a25.84,25.84,0,0,0,1.55,9.15,20.75,20.75,0,0,0,4.45,7.2,20.28,20.28,0,0,0,6.95,4.75,24.94,24.94,0,0,0,18.1,0,20.37,20.37,0,0,0,6.95-4.75,21,21,0,0,0,4.45-7.2A26.07,26.07,0,0,0,337.5,50,26.15,26.15,0,0,0,336,40.9a21,21,0,0,0-4.45-7.25,20.37,20.37,0,0,0-6.95-4.75,24.94,24.94,0,0,0-18.1,0,20.28,20.28,0,0,0-6.95,4.75,20.69,20.69,0,0,0-4.45,7.25A25.92,25.92,0,0,0,293.5,50Z" transform="translate(0 -2.84)"/><path class="cls-2" d="M360.5,50a40,40,0,0,1,2.85-15.4,33.75,33.75,0,0,1,7.95-11.75,35,35,0,0,1,12.1-7.45,46.32,46.32,0,0,1,30.6,0,35.09,35.09,0,0,1,12.1,7.45,33.75,33.75,0,0,1,7.95,11.75A40,40,0,0,1,436.9,50a40,40,0,0,1-2.85,15.4,33.75,33.75,0,0,1-7.95,11.75A35.09,35.09,0,0,1,414,84.6a46.32,46.32,0,0,1-30.6,0,35,35,0,0,1-12.1-7.45,33.75,33.75,0,0,1-7.95-11.75A40,40,0,0,1,360.5,50Zm16.2,0a25.84,25.84,0,0,0,1.55,9.15,20.75,20.75,0,0,0,4.45,7.2,20.28,20.28,0,0,0,6.95,4.75,24.94,24.94,0,0,0,18.1,0,20.37,20.37,0,0,0,6.95-4.75,21,21,0,0,0,4.45-7.2A26.07,26.07,0,0,0,420.7,50a26.15,26.15,0,0,0-1.55-9.1,21,21,0,0,0-4.45-7.25,20.37,20.37,0,0,0-6.95-4.75,24.94,24.94,0,0,0-18.1,0,20.28,20.28,0,0,0-6.95,4.75,20.69,20.69,0,0,0-4.45,7.25A25.92,25.92,0,0,0,376.7,50Z" transform="translate(0 -2.84)"/><path class="cls-2" d="M448.09,14.6h15.6V44l27.5-29.4h20.4l-31.5,32.9,34.2,37.9h-21.8l-28.8-33.6V85.4h-15.6Z" transform="translate(0 -2.84)"/><path class="cls-2" d="M250.6,164.2l23.9-57.6h11v70.8h-7.2V116.2h-.2l-25.6,61.2h-3.8l-25.6-61.2h-.2v61.2h-7.2V106.6h11Z" transform="translate(0 -2.84)"/><path class="cls-2" d="M303.5,177.4h-8.4l30.8-70.8h7l30.8,70.8h-8.4l-7.8-18.6H311.3ZM314,152.2h30.7L329.4,115Z" transform="translate(0 -2.84)"/><path class="cls-2" d="M424.5,166.6h.2v-60h7.2v70.8h-9l-42.2-60.6h-.2v60.6h-7.2V106.6h9Z" transform="translate(0 -2.84)"/><path class="cls-2" d="M458.3,177.4h-7.2V106.6h7.2Z" transform="translate(0 -2.84)"/><path class="cls-2" d="M476.3,177.4h-8.4l30.8-70.8h7l30.8,70.8h-8.4l-7.8-18.6H484.1Zm10.5-25.2h30.7L502.2,115Z" transform="translate(0 -2.84)"/><path class="cls-2" d="M105.71,66.13H79.26L0,21.61V135.12l79.26,44.52s6.77,4.24,13.21,4.22,13.24-4.22,13.24-4.22L185,135.12V21.61Z" transform="translate(0 -2.84)"/><polygon class="cls-4" points="92.6 58 13.33 13.48 13.33 126.98 92.6 171.5 171.87 126.98 171.87 13.48 92.6 58"/><polygon class="cls-4" points="92.96 50.78 21.96 6.18 21.96 119.88 92.96 164.48 163.96 119.88 163.96 6.18 92.96 50.78"/><polygon class="cls-7" points="92.46 43.96 67.95 26.56 77.64 142.96 92.46 153.48 106.52 143.5 116.97 26.56 92.46 43.96"/><polygon class="cls-4" points="92.46 43.96 31.96 1 31.96 110.52 92.46 153.48 152.96 110.52 152.96 1 92.46 43.96"/></svg>