<?xml version="1.0" encoding="utf-8"?>
<!-- Generator: Adobe Illustrator 26.0.1, SVG Export Plug-In . SVG Version: 6.00 Build 0)  -->
<svg version="1.1" id="Layer_1" xmlns="http://www.w3.org/2000/svg" xmlns:xlink="http://www.w3.org/1999/xlink" x="0px" y="0px"
	 viewBox="0 0 500.5 137.1" style="enable-background:new 0 0 500.5 137.1;" xml:space="preserve">
<style type="text/css">
	.st0{fill:#4A80EF;}
	.st1{fill:#E5E5E5;}
	.st2{fill:#2E2E2E;}
</style>
<path class="st0" d="M443.3,119.9L63.5,137.1C30.5,138.6,2.5,113,1,80l0-0.2c-1.5-33,24.1-61,57.1-62.5L437.9,0.1
	c33-1.5,61,24.1,62.5,57.1l0,0.2C502,90.5,476.4,118.4,443.3,119.9z"/>
<path class="st1" d="M440.1,128.8H59.9C26.8,128.8,0,102,0,68.9l0-0.2C0,35.6,26.8,8.8,59.9,8.8h380.2c33.1,0,59.9,26.8,59.9,59.9
	v0.2C500,102,473.2,128.8,440.1,128.8z"/>
<g>
	<path class="st0" d="M80.5,40.1h14.8c3.6-0.1,7.1,0.2,10.6,1.1c2.4,0.7,4.5,2.3,5.8,4.4c1.5,2.2,2.2,5.8,2.2,10.7
		c0,3.3-0.5,5.7-1.6,7c-1,1.3-3.1,2.3-6.2,3c3.4,0.8,5.8,2.1,7,3.8s1.8,4.5,1.8,8.2v5.3c0,3.8-0.4,6.7-1.3,8.5
		c-0.8,1.8-2.3,3.2-4.2,3.8c-1.9,0.7-5.9,1-11.8,1H80.5V40.1z M95.3,49.8v12.7h1.5c1.5,0,2.4-0.3,2.8-1.1c0.4-0.7,0.6-2.8,0.6-6.1
		c0.1-1.3-0.1-2.5-0.5-3.8c-0.2-0.6-0.7-1.1-1.3-1.3C97.4,50,96.3,49.8,95.3,49.8z M95.3,71.4v15.9c2.1-0.1,3.4-0.4,4-1
		c0.6-0.6,0.9-2,0.9-4.3v-5.3c0-2.4-0.3-3.9-0.8-4.4C98.9,71.7,97.5,71.4,95.3,71.4z"/>
	<path class="st0" d="M154.1,73.6c0.1,3.9-0.1,7.8-0.4,11.7c-0.3,2.3-1.1,4.4-2.5,6.3c-1.5,1.9-3.5,3.4-5.8,4.3
		c-2.7,1.1-5.6,1.6-8.4,1.5c-2.8,0-5.6-0.4-8.2-1.4c-2.3-0.9-4.3-2.4-5.8-4.3c-1.4-1.8-2.3-4-2.6-6.3c-0.3-3.9-0.5-7.9-0.4-11.8
		v-9.3c-0.1-3.9,0.1-7.8,0.4-11.7c0.3-2.3,1.1-4.4,2.5-6.3c1.5-1.9,3.5-3.5,5.7-4.4c2.7-1.1,5.6-1.6,8.4-1.5c2.8,0,5.6,0.5,8.2,1.5
		c2.3,0.9,4.3,2.4,5.9,4.3c1.4,1.8,2.3,4,2.6,6.2c0.3,3.9,0.5,7.9,0.4,11.8V73.6z M139.3,55.6c0.1-1.6-0.1-3.3-0.4-4.9
		c-0.3-0.7-1-1.2-1.8-1.1c-0.7,0-1.4,0.3-1.8,0.9c-0.4,0.6-0.6,2.3-0.6,5.1v25.6c-0.1,2,0,3.9,0.4,5.9c0.3,0.8,1.1,1.2,1.9,1.1
		c0.9,0.1,1.7-0.4,1.9-1.3c0.4-2,0.5-4.1,0.4-6.1V55.6z"/>
	<path class="st0" d="M193.4,73.6c0.1,3.9-0.1,7.8-0.4,11.7c-0.3,2.3-1.1,4.4-2.5,6.3c-1.5,1.9-3.5,3.4-5.8,4.3
		c-2.7,1.1-5.6,1.6-8.4,1.5c-2.8,0-5.6-0.4-8.2-1.4c-2.3-0.9-4.3-2.4-5.8-4.3c-1.4-1.8-2.3-4-2.6-6.3c-0.3-3.9-0.5-7.9-0.4-11.8
		v-9.3c-0.1-3.9,0.1-7.8,0.4-11.7c0.3-2.3,1.1-4.4,2.5-6.3c1.5-1.9,3.5-3.5,5.7-4.4c2.7-1.1,5.6-1.6,8.4-1.5c2.8,0,5.6,0.5,8.2,1.5
		c2.3,0.9,4.3,2.4,5.9,4.3c1.4,1.8,2.3,4,2.6,6.2c0.3,3.9,0.5,7.9,0.4,11.8L193.4,73.6z M178.6,55.6c0.1-1.6-0.1-3.3-0.4-4.9
		c-0.3-0.7-1-1.2-1.8-1.1c-0.7,0-1.4,0.3-1.8,0.9c-0.4,0.6-0.6,2.3-0.6,5.1v25.6c-0.1,2,0,3.9,0.4,5.9c0.3,0.8,1.1,1.2,1.9,1.1
		c0.9,0.1,1.7-0.4,1.9-1.3c0.4-2,0.5-4.1,0.4-6.1V55.6z"/>
	<path class="st0" d="M234.2,40.1l-8.5,25.7L235,97h-15.3l-6-24.4V97h-14.8V40.1h14.8v22.1l6.6-22.1H234.2z"/>
	<path class="st2" d="M283.2,40.1V97h-12.9V58.6L265.2,97H256l-5.5-37.5V97h-12.9V40.1h19.2c0.6,3.4,1.2,7.5,1.8,12.1l2.1,14.5
		l3.4-26.6H283.2z"/>
	<path class="st2" d="M314.8,40.1l8.5,56.9h-15.1l-0.8-10.2H302L301.1,97h-15.3l7.5-56.9H314.8z M306.9,76.7
		c-0.7-6.4-1.5-14.4-2.3-23.9c-1.5,10.9-2.4,18.9-2.8,23.9H306.9z"/>
	<path class="st2" d="M358.8,40.1V97h-13l-7.7-25.9V97h-12.3V40.1h12.4l8.3,25.6V40.1H358.8z"/>
	<path class="st2" d="M379.5,40.1V97h-14.8V40.1H379.5z"/>
	<path class="st2" d="M411.1,40.1l8.4,56.9h-15.1l-0.8-10.2h-5.3L397.4,97h-15.3l7.6-56.9H411.1z M403.2,76.7
		c-0.7-6.4-1.5-14.4-2.2-23.9c-1.5,10.9-2.5,18.9-2.8,23.9H403.2z"/>
</g>
</svg>
