<?xml version="1.0" encoding="utf-8"?>
<!-- Generator: Adobe Illustrator 26.0.1, SVG Export Plug-In . SVG Version: 6.00 Build 0)  -->
<svg version="1.1"
	 id="Layer_1" xmlns:cc="http://creativecommons.org/ns#" xmlns:dc="http://purl.org/dc/elements/1.1/" xmlns:inkscape="http://www.inkscape.org/namespaces/inkscape" xmlns:rdf="http://www.w3.org/1999/02/22-rdf-syntax-ns#" xmlns:sodipodi="http://sodipodi.sourceforge.net/DTD/sodipodi-0.dtd" xmlns:svg="http://www.w3.org/2000/svg"
	 xmlns="http://www.w3.org/2000/svg" xmlns:xlink="http://www.w3.org/1999/xlink" x="0px" y="0px" viewBox="0 0 100 101.2"
	 style="enable-background:new 0 0 100 101.2;" xml:space="preserve">
<g transform="translate(0,-952.36218)">
	<path fill="#0e65b1" d="M50,968.4c-7.2,0-14.4,2.7-19.8,8.2c-4.1,4.1-6.5,9.1-7.6,14.3C12,992.9,4,1002.2,4,1013.4c0,12.7,10.3,23,23,23h49
		c11,0,20-9,20-20c0-10.4-8-18.9-18.2-19.8c0-7.2-2.5-14.5-8-20C64.3,971.1,57.2,968.4,50,968.4z M50,974.4c5.6,0,11.2,2.1,15.5,6.4
		c5,5,7.1,11.7,6.3,18.2c-0.2,1.6,1,3.1,2.6,3.4c0.1,0,0.2,0,0.4,0H76c7.8,0,14,6.2,14,14c0,7.8-6.2,14-14,14H27
		c-9.4,0-17-7.6-17-17c0-8.9,6.8-16.2,15.4-16.9c1.4-0.1,2.5-1.2,2.7-2.6c0.6-4.8,2.7-9.4,6.3-13C38.7,976.5,44.4,974.4,50,974.4z
		 M50,993.4c-1,0-1.5,0.3-2,0.8l-11,10c-1.3,1.2-1.2,3.1-0.2,4.2c1.1,1.2,3.1,1.2,4.2,0.2l6-5.4v17.2c0,1.7,1.3,3,3,3
		c1.7,0,3-1.3,3-3v-17.2l6,5.4c1.2,1.1,3.1,0.9,4.2-0.2c1.2-1.2,1-3.2-0.2-4.2l-11-10C51.4,993.6,51,993.4,50,993.4z"/>
</g>
</svg>
